<svg viewBox="0 0 205 210" xmlns="http://www.w3.org/2000/svg" xmlns:bx="https://boxy-svg.com">
  <g transform="matrix(8.456941, 0, 0, 8.793091, 1.864947, -9042.986328)" style="animation: rotate 4s linear infinite;">
    <path d="m4.2218 1031.2 2.1213 0.7 0.1548 0.1c0.3432-0.2 0.6978-0.4 1.0606-0.6l-0.0663-0.2 0.4199-2.2 1.9445-0.5 1.4804 1.7 0.044 0.2c0.416-0.1 0.822-0.1 1.238 0l0.044-0.2 1.48-1.7 1.945 0.5 0.42 2.2-0.066 0.2c0.362 0.2 0.717 0.4 1.06 0.6l0.155-0.1 2.121-0.7 1.414 1.4-0.707 2.1-0.154 0.2c0.226 0.3 0.438 0.7 0.618 1h0.199l2.188 0.4 0.53 1.9-1.701 1.5h-0.177c0.026 0.5 0.026 0.9 0 1.3h0.177l1.701 1.5-0.53 2-2.188 0.4-0.199-0.1c-0.18 0.4-0.392 0.7-0.618 1.1l0.154 0.1 0.707 2.1-1.414 1.5-2.121-0.8-0.155-0.1c-0.343 0.2-0.698 0.4-1.06 0.6l0.066 0.2-0.42 2.2-1.945 0.5-1.48-1.7-0.044-0.1h-1.238l-0.044 0.1-1.4804 1.7-1.9446-0.5-0.4198-2.2 0.0663-0.2c-0.3628-0.2-0.7174-0.4-1.0607-0.6l-0.1547 0.1-2.1213 0.8-1.4142-1.5 0.7071-2.1 0.1547-0.1c-0.2267-0.4-0.4389-0.7-0.6187-1.1l-0.1989 0.1-2.1876-0.4-0.53034-2 1.7015-1.5h0.1767c-0.0258-0.4-0.0258-0.8 0-1.3h-0.1767l-1.7015-1.5 0.53033-1.9 2.1876-0.4h0.1989c0.1798-0.3 0.3921-0.7 0.6187-1l-0.1547-0.2-0.7071-2.1 1.4142-1.4zm2.8285 4.2c-2.7337 2.7-2.7337 7.2 0 9.9 2.7336 2.7 7.1657 2.7 9.8997 0 2.733-2.7 2.733-7.2 0-9.9-2.734-2.7-7.1661-2.7-9.8997 0z" style="fill: rgb(54, 54, 54); stroke-width: 0.15px; stroke: rgb(255, 255, 255);"></path>
  </g>
  <circle style="fill: rgb(216, 216, 216); stroke: rgb(0, 0, 0);" cx="489.808" cy="125.766" r="58.557" transform="matrix(1.05631, 0, 0, 1.071667, -412.542969, -29.57585)"></circle>
  <path d="M 119.782 118.843 L 125.593 104.046 C 118.42 103.971 114.832 103.061 114.832 101.315 C 114.82 100.652 115.091 100.019 115.57 99.593 C 115.677 99.495 115.79 99.405 115.908 99.323 C 116.486 98.927 116.97 98.689 117.362 98.611 C 117.45 98.593 117.541 98.584 117.63 98.583 C 117.652 98.583 117.674 98.584 117.696 98.584 C 117.904 98.588 118.573 98.601 119.701 98.626 C 119.908 98.631 120.115 98.635 120.32 98.64 C 121.64 98.67 123.399 98.709 125.6 98.761 C 126.315 98.778 127.031 98.794 127.746 98.811 C 128.951 95.953 130.25 93.14 131.64 90.378 C 136.016 81.752 140.154 76.532 144.056 74.72 C 145.018 74.257 146.059 74.011 147.116 73.998 C 148.401 74.011 149.664 74.351 150.798 74.991 C 151.838 75.556 152.871 76.363 153.896 77.413 C 154.347 77.891 154.635 78.513 154.716 79.183 C 154.744 79.389 154.758 79.596 154.757 79.803 C 154.759 80.205 154.736 80.605 154.689 81.003 C 154.493 82.555 153.87 83.331 152.82 83.331 C 152.671 83.329 152.527 83.281 152.403 83.195 C 152.184 83.051 151.964 82.794 151.744 82.421 C 151.465 81.904 151.015 81.476 150.395 81.139 C 150.379 81.13 150.362 81.121 150.345 81.112 C 149.699 80.77 149.09 80.6 148.515 80.6 C 146.454 80.589 144.476 81.453 143.023 82.998 C 142.97 83.051 142.917 83.106 142.865 83.161 C 141.413 84.698 140.046 86.65 138.766 89.018 C 138.623 89.283 138.483 89.55 138.346 89.819 C 136.947 92.551 135.458 95.549 133.88 98.811 L 135.171 98.811 C 141.917 98.811 146.715 98.726 149.563 98.557 C 149.968 98.534 150.371 98.504 150.775 98.469 C 150.918 98.508 151.026 98.564 151.097 98.639 C 151.169 98.714 151.209 98.817 151.205 98.924 C 151.205 99.44 149.369 100.12 145.693 100.964 C 144.985 101.127 144.276 101.282 143.565 101.428 C 141.557 101.732 139.583 102.074 137.646 102.453 C 135.709 102.833 133.736 103.212 131.727 103.591 C 131.086 105.052 130.343 106.701 129.499 108.538 C 129.096 109.413 128.692 110.287 128.284 111.16 C 126.921 114.082 125.378 117.325 123.656 120.891 C 121.076 126.004 118.851 130.317 116.984 133.827 C 116.452 134.83 115.913 135.83 115.37 136.826 C 114.933 137.628 114.494 138.427 114.051 139.225 C 112.59 141.855 111.524 143.672 110.85 144.679 C 105.85 152.218 100.942 156.736 96.125 158.235 C 94.967 158.602 93.765 158.79 92.556 158.793 C 90.634 158.807 88.797 157.958 87.5 156.456 C 87.351 156.292 87.206 156.123 87.068 155.948 C 86.397 155.118 85.845 154.19 85.426 153.192 C 84.984 152.121 84.738 150.97 84.7 149.801 C 84.84 149.209 85.026 148.809 85.257 148.602 C 85.37 148.496 85.517 148.437 85.669 148.436 C 85.836 148.439 85.99 148.532 86.077 148.684 C 86.245 148.934 86.355 149.371 86.407 149.997 C 86.413 150.064 86.418 150.133 86.422 150.2 C 86.467 150.833 86.64 151.446 86.932 152 C 87.137 152.404 87.404 152.806 87.731 153.204 C 87.864 153.365 88.002 153.521 88.144 153.671 C 88.446 153.996 88.775 154.29 89.127 154.553 C 89.876 155.104 90.624 155.378 91.372 155.378 C 94.614 155.345 97.764 154.233 100.376 152.201 C 103.061 150.211 105.62 147.287 108.052 143.427 C 108.425 142.845 108.786 142.253 109.135 141.653 C 110.279 139.698 111.604 137.197 113.11 134.151 C 114.492 131.36 115.975 128.077 117.559 124.299 C 118.318 122.488 119.059 120.669 119.782 118.843 Z" id="1" vector-effect="non-scaling-stroke" style="fill: rgb(54, 54, 54);"></path>
  <path d="M 26.887 137.332 L 66.223 34.601 L 68.918 34.601 L 105.926 137.463 L 26.887 137.332 Z M 35.96 130.954 L 89.925 130.954 L 76.052 92.741 C 73.38 84.498 65.177 62.969 63.934 57.881 C 62.919 63.846 54.799 82.087 49.717 95.502 L 35.96 130.954 Z" style="fill: rgb(0, 255, 227); stroke: rgb(0, 0, 0);"></path>
</svg>