<svg viewBox="0 0 230 230" xmlns="http://www.w3.org/2000/svg">
  <defs>
    <radialGradient gradientUnits="userSpaceOnUse" cx="118.203" cy="119.033" r="118.01" id="gradient-0" gradientTransform="matrix(-0.013344, -2.170514, 2.506613, -0.015351, -178.575552, 377.645843)">
      <stop offset="0" style="stop-color: rgb(212, 212, 212);"></stop>
      <stop offset="1" style="stop-color: rgb(141, 141, 141);"></stop>
    </radialGradient>
  </defs>
  <circle style="paint-order: fill; fill: url(#gradient-0); stroke: rgba(0, 0, 0, 0); fill-rule: evenodd;" cx="118.651" cy="118.81" r="118.01" transform="matrix(0.968703, 0, 0, 0.970544, 0.020061, -0.410948)"></circle>
  <g transform="matrix(8.45694, 0, 0, 8.7172, 12.572386, -8956.176758)" style="">
    <path d="m4.2218 1031.2 2.1213 0.7 0.1548 0.1c0.3432-0.2 0.6978-0.4 1.0606-0.6l-0.0663-0.2 0.4199-2.2 1.9445-0.5 1.4804 1.7 0.044 0.2c0.416-0.1 0.822-0.1 1.238 0l0.044-0.2 1.48-1.7 1.945 0.5 0.42 2.2-0.066 0.2c0.362 0.2 0.717 0.4 1.06 0.6l0.155-0.1 2.121-0.7 1.414 1.4-0.707 2.1-0.154 0.2c0.226 0.3 0.438 0.7 0.618 1h0.199l2.188 0.4 0.53 1.9-1.701 1.5h-0.177c0.026 0.5 0.026 0.9 0 1.3h0.177l1.701 1.5-0.53 2-2.188 0.4-0.199-0.1c-0.18 0.4-0.392 0.7-0.618 1.1l0.154 0.1 0.707 2.1-1.414 1.5-2.121-0.8-0.155-0.1c-0.343 0.2-0.698 0.4-1.06 0.6l0.066 0.2-0.42 2.2-1.945 0.5-1.48-1.7-0.044-0.1h-1.238l-0.044 0.1-1.4804 1.7-1.9446-0.5-0.4198-2.2 0.0663-0.2c-0.3628-0.2-0.7174-0.4-1.0607-0.6l-0.1547 0.1-2.1213 0.8-1.4142-1.5 0.7071-2.1 0.1547-0.1c-0.2267-0.4-0.4389-0.7-0.6187-1.1l-0.1989 0.1-2.1876-0.4-0.53034-2 1.7015-1.5h0.1767c-0.0258-0.4-0.0258-0.8 0-1.3h-0.1767l-1.7015-1.5 0.53033-1.9 2.1876-0.4h0.1989c0.1798-0.3 0.3921-0.7 0.6187-1l-0.1547-0.2-0.7071-2.1 1.4142-1.4zm2.8285 4.2c-2.7337 2.7-2.7337 7.2 0 9.9 2.7336 2.7 7.1657 2.7 9.8997 0 2.733-2.7 2.733-7.2 0-9.9-2.734-2.7-7.1661-2.7-9.8997 0z" style="fill: rgb(135, 165, 191);"></path>
  </g>
  <g transform="matrix(0.0844, 0, 0, -0.097836, -23.230188, 359.093048)" fill="#000000" stroke="none" style="">
    <path d="M 1800.467 3237.279 C 1758.706 3225.186 1701.127 3182.572 1642.283 3120.091 C 1635.322 3112.892 1597.674 3084.387 1558.445 3056.746 C 1430.631 2966.911 1260.108 2837.054 1145.583 2742.325 L 1095.28 2700.287 L 1071.236 2721.306 C 1008.911 2775.437 927.92 2814.883 858.319 2825.249 C 784.921 2836.19 732.404 2825.249 700.451 2792.137 C 684.632 2776.013 665.017 2738.582 659.956 2714.971 C 651.73 2678.404 662.803 2598.935 680.52 2567.262 C 689.694 2550.562 701.084 2541.637 712.789 2541.637 C 725.128 2541.637 725.444 2541.924 727.975 2588.281 C 735.884 2723.897 796.311 2774.861 920.96 2751.251 C 955.761 2744.916 1020.933 2711.228 1054.152 2682.147 L 1064.276 2673.509 L 1025.679 2640.397 C 962.721 2585.69 855.472 2485.49 809.282 2438.557 C 719.749 2347.283 649.199 2259.176 609.653 2190.36 C 559.034 2101.389 547.012 2017.601 585.292 2017.601 C 606.173 2017.601 636.228 2043.803 697.604 2114.922 C 765.307 2194.391 864.014 2327.416 912.418 2405.445 C 924.757 2425.6 970.63 2483.186 1014.922 2534.438 C 1050.039 2575.037 1102.873 2630.895 1106.036 2630.895 C 1108.567 2630.895 1116.793 2620.818 1141.153 2587.418 C 1166.463 2553.154 1194.936 2499.023 1210.122 2455.833 C 1237.962 2378.667 1237.646 2344.404 1207.591 2222.033 C 1196.202 2174.524 1188.292 2127.591 1188.292 2105.133 C 1188.292 2066.838 1206.642 2006.372 1226.89 1978.731 C 1238.279 1962.894 1264.854 1945.043 1289.214 1936.693 C 1310.411 1929.207 1357.55 1925.751 1367.99 1930.934 C 1376.849 1935.253 1376.849 1938.996 1367.358 1954.544 C 1351.223 1981.322 1348.059 1997.446 1348.375 2055.033 C 1348.692 2129.895 1359.765 2193.24 1391.085 2299.774 C 1464.167 2549.411 1642.915 2915.371 1813.438 3163.856 C 1850.454 3217.411 1854.883 3226.337 1849.504 3235.263 C 1846.657 3240.158 1843.177 3241.31 1829.573 3241.022 C 1820.398 3241.022 1807.427 3239.294 1800.467 3237.279 Z M 1566.037 2985.627 C 1566.987 2984.187 1553.699 2962.016 1536.615 2935.815 C 1454.992 2811.428 1358.499 2630.319 1300.604 2494.128 C 1283.52 2454.105 1273.396 2437.405 1268.967 2441.436 C 1267.701 2442.3 1260.108 2458.712 1251.566 2477.716 C 1224.359 2538.757 1194.62 2587.706 1156.656 2634.35 L 1134.826 2660.84 L 1163.616 2688.194 C 1260.108 2781.195 1393.933 2887.154 1511.938 2964.608 C 1542.943 2984.763 1561.608 2991.961 1566.037 2985.627 Z" style="fill: rgb(54, 54, 54);"></path>
    <path d="M 2290.84 3134.775 C 2200.042 3131.896 2179.161 3130.456 2168.088 3125.849 C 2151.954 3119.227 2153.535 3105.982 2171.885 3097.632 C 2204.155 3082.66 2214.278 3048.108 2200.358 3002.327 C 2188.336 2962.304 2182.641 2953.09 2066.217 2782.923 L 2009.904 2699.999 L 1964.347 2699.999 C 1913.727 2699.999 1903.92 2697.407 1895.378 2682.723 C 1889.683 2672.357 1889.367 2672.645 1895.694 2667.175 C 1899.491 2663.431 1908.666 2662.568 1941.568 2662.568 C 1964.03 2662.568 1982.38 2661.992 1982.38 2661.128 C 1982.38 2660.552 1960.234 2626.576 1933.026 2585.978 C 1802.365 2389.609 1677.083 2192.088 1604.951 2067.989 C 1535.982 1949.074 1512.571 1890.048 1528.706 1875.363 C 1535.35 1869.029 1541.361 1869.605 1560.026 1877.667 C 1599.889 1894.655 1667.908 1950.513 1722.64 2011.555 C 1776.739 2072.02 1844.126 2172.509 1884.305 2252.266 C 1917.84 2319.066 2009.904 2482.611 2082.985 2605.557 L 2116.837 2662.568 L 2245.283 2662.568 C 2373.412 2662.568 2373.729 2662.568 2387.649 2669.19 C 2404.733 2677.252 2417.387 2695.392 2409.478 2700.287 C 2406.315 2702.302 2362.972 2702.878 2274.389 2701.726 C 2198.776 2700.863 2143.728 2701.438 2143.728 2702.878 C 2143.728 2708.349 2246.232 2864.12 2298.749 2938.406 C 2343.673 3002.039 2398.405 3067.975 2414.224 3077.765 C 2442.697 3095.041 2496.163 3103.391 2543.303 3097.632 C 2603.096 3090.434 2633.151 3067.399 2643.592 3021.042 C 2648.021 3001.175 2646.123 2962.016 2639.479 2941.861 C 2633.468 2923.433 2636.631 2914.796 2649.286 2913.644 C 2656.879 2913.068 2661.308 2914.508 2666.687 2919.69 C 2686.934 2939.846 2779.63 3098.208 2779.63 3113.18 C 2779.63 3125.273 2769.507 3129.304 2734.706 3132.184 C 2688.832 3135.927 2381.954 3137.654 2290.84 3134.775 Z" style="fill: rgb(54, 54, 54);"></path>
  </g>
</svg>